<mxfile host="app.diagrams.net" modified="2024-05-20T09:45:34.015Z" agent="Mozilla/5.0 (Windows NT 10.0; Win64; x64) AppleWebKit/537.36 (KHTML, like Gecko) Chrome/123.0.0.0 Safari/537.36 OPR/109.0.0.0" etag="USp_LmY4FKJzvUteOq0_" version="24.4.4" type="google">
  <diagram name="Pagina-1" id="JREFUcx0Fop-orosKDn-">
    <mxGraphModel grid="1" page="1" gridSize="10" guides="1" tooltips="1" connect="1" arrows="1" fold="1" pageScale="1" pageWidth="827" pageHeight="1169" math="0" shadow="0">
      <root>
        <mxCell id="0" />
        <mxCell id="1" parent="0" />
        <mxCell id="bxGi4GK2DCBjNLN2fOAF-1" value="&lt;font style=&quot;font-size: 48px;&quot;&gt;1a - deleteDutySheet&lt;/font&gt;" style="text;html=1;align=center;verticalAlign=middle;resizable=0;points=[];autosize=1;strokeColor=none;fillColor=none;" vertex="1" parent="1">
          <mxGeometry x="150" y="78" width="470" height="70" as="geometry" />
        </mxCell>
        <mxCell id="bxGi4GK2DCBjNLN2fOAF-2" value="UI" style="shape=folder;fontStyle=1;spacingTop=10;tabWidth=40;tabHeight=14;tabPosition=left;html=1;whiteSpace=wrap;" vertex="1" parent="1">
          <mxGeometry x="80" y="240" width="70" height="50" as="geometry" />
        </mxCell>
        <mxCell id="bxGi4GK2DCBjNLN2fOAF-3" value="" style="endArrow=none;dashed=1;html=1;dashPattern=1 3;strokeWidth=2;rounded=0;entryX=0.5;entryY=1;entryDx=0;entryDy=0;entryPerimeter=0;" edge="1" parent="1" target="bxGi4GK2DCBjNLN2fOAF-2">
          <mxGeometry width="50" height="50" relative="1" as="geometry">
            <mxPoint x="115" y="800" as="sourcePoint" />
            <mxPoint x="340" y="400" as="targetPoint" />
            <Array as="points">
              <mxPoint x="115" y="870" />
            </Array>
          </mxGeometry>
        </mxCell>
        <mxCell id="bxGi4GK2DCBjNLN2fOAF-4" value="dutyMgr: DutyManager" style="shape=umlLifeline;perimeter=lifelinePerimeter;whiteSpace=wrap;html=1;container=1;dropTarget=0;collapsible=0;recursiveResize=0;outlineConnect=0;portConstraint=eastwest;newEdgeStyle={&quot;curved&quot;:0,&quot;rounded&quot;:0};" vertex="1" parent="1">
          <mxGeometry x="270" y="240" width="100" height="610" as="geometry" />
        </mxCell>
        <mxCell id="bxGi4GK2DCBjNLN2fOAF-5" value="" style="html=1;points=[[0,0,0,0,5],[0,1,0,0,-5],[1,0,0,0,5],[1,1,0,0,-5]];perimeter=orthogonalPerimeter;outlineConnect=0;targetShapes=umlLifeline;portConstraint=eastwest;newEdgeStyle={&quot;curved&quot;:0,&quot;rounded&quot;:0};" vertex="1" parent="bxGi4GK2DCBjNLN2fOAF-4">
          <mxGeometry x="45" y="80" width="10" height="500" as="geometry" />
        </mxCell>
        <mxCell id="bxGi4GK2DCBjNLN2fOAF-6" value="deleteDutySheet(ds, ev)" style="html=1;verticalAlign=bottom;endArrow=block;curved=0;rounded=0;entryX=0;entryY=0;entryDx=0;entryDy=5;" edge="1" parent="bxGi4GK2DCBjNLN2fOAF-4" target="bxGi4GK2DCBjNLN2fOAF-5">
          <mxGeometry relative="1" as="geometry">
            <mxPoint x="-154" y="85" as="sourcePoint" />
          </mxGeometry>
        </mxCell>
        <mxCell id="XZgcgWhxU5W4tQEqC7gM-12" value="" style="html=1;points=[[0,0,0,0,5],[0,1,0,0,-5],[1,0,0,0,5],[1,1,0,0,-5]];perimeter=orthogonalPerimeter;outlineConnect=0;targetShapes=umlLifeline;portConstraint=eastwest;newEdgeStyle={&quot;curved&quot;:0,&quot;rounded&quot;:0};" vertex="1" parent="bxGi4GK2DCBjNLN2fOAF-4">
          <mxGeometry x="55" y="460" width="10" height="60" as="geometry" />
        </mxCell>
        <mxCell id="XZgcgWhxU5W4tQEqC7gM-13" value="notifyDutySheetDeleted(ds)" style="html=1;align=left;spacingLeft=2;endArrow=block;rounded=0;edgeStyle=orthogonalEdgeStyle;curved=0;rounded=0;" edge="1" parent="bxGi4GK2DCBjNLN2fOAF-4" target="XZgcgWhxU5W4tQEqC7gM-12">
          <mxGeometry x="0.2498" relative="1" as="geometry">
            <mxPoint x="55" y="410" as="sourcePoint" />
            <Array as="points">
              <mxPoint x="55" y="440" />
              <mxPoint x="90" y="440" />
              <mxPoint x="90" y="470" />
            </Array>
            <mxPoint as="offset" />
          </mxGeometry>
        </mxCell>
        <mxCell id="bxGi4GK2DCBjNLN2fOAF-8" value="userMgr: UserManager" style="shape=umlLifeline;perimeter=lifelinePerimeter;whiteSpace=wrap;html=1;container=1;dropTarget=0;collapsible=0;recursiveResize=0;outlineConnect=0;portConstraint=eastwest;newEdgeStyle={&quot;curved&quot;:0,&quot;rounded&quot;:0};" vertex="1" parent="1">
          <mxGeometry x="480" y="240" width="100" height="560" as="geometry" />
        </mxCell>
        <mxCell id="bxGi4GK2DCBjNLN2fOAF-9" value="" style="html=1;points=[[0,0,0,0,5],[0,1,0,0,-5],[1,0,0,0,5],[1,1,0,0,-5]];perimeter=orthogonalPerimeter;outlineConnect=0;targetShapes=umlLifeline;portConstraint=eastwest;newEdgeStyle={&quot;curved&quot;:0,&quot;rounded&quot;:0};" vertex="1" parent="bxGi4GK2DCBjNLN2fOAF-8">
          <mxGeometry x="45" y="80" width="10" height="40" as="geometry" />
        </mxCell>
        <mxCell id="bxGi4GK2DCBjNLN2fOAF-10" value="getCurrentUser()" style="html=1;verticalAlign=bottom;endArrow=block;curved=0;rounded=0;" edge="1" parent="1" target="bxGi4GK2DCBjNLN2fOAF-9">
          <mxGeometry relative="1" as="geometry">
            <mxPoint x="325" y="330" as="sourcePoint" />
            <mxPoint x="525" y="330" as="targetPoint" />
            <mxPoint as="offset" />
          </mxGeometry>
        </mxCell>
        <mxCell id="bxGi4GK2DCBjNLN2fOAF-13" value="delete(ds)" style="html=1;verticalAlign=bottom;endArrow=open;dashed=1;endSize=8;curved=0;rounded=0;" edge="1" parent="1">
          <mxGeometry relative="1" as="geometry">
            <mxPoint x="325" y="470" as="sourcePoint" />
            <mxPoint x="678.9999999999998" y="470" as="targetPoint" />
          </mxGeometry>
        </mxCell>
        <mxCell id="bxGi4GK2DCBjNLN2fOAF-14" value="ds:&amp;nbsp;&lt;div&gt;DutySheet&lt;/div&gt;" style="shape=umlLifeline;perimeter=lifelinePerimeter;whiteSpace=wrap;html=1;container=1;dropTarget=0;collapsible=0;recursiveResize=0;outlineConnect=0;portConstraint=eastwest;newEdgeStyle={&quot;curved&quot;:0,&quot;rounded&quot;:0};" vertex="1" parent="1">
          <mxGeometry x="634" y="240" width="100" height="450" as="geometry" />
        </mxCell>
        <mxCell id="bxGi4GK2DCBjNLN2fOAF-11" value="user" style="html=1;verticalAlign=bottom;endArrow=open;dashed=1;endSize=8;curved=0;rounded=0;exitX=0;exitY=1;exitDx=0;exitDy=-5;" edge="1" parent="1" source="bxGi4GK2DCBjNLN2fOAF-9" target="bxGi4GK2DCBjNLN2fOAF-5">
          <mxGeometry relative="1" as="geometry">
            <mxPoint x="330" y="765" as="targetPoint" />
          </mxGeometry>
        </mxCell>
        <mxCell id="XZgcgWhxU5W4tQEqC7gM-14" value="er: DutyEventReceiver" style="shape=umlLifeline;perimeter=lifelinePerimeter;whiteSpace=wrap;html=1;container=1;dropTarget=0;collapsible=0;recursiveResize=0;outlineConnect=0;portConstraint=eastwest;newEdgeStyle={&quot;curved&quot;:0,&quot;rounded&quot;:0};" vertex="1" parent="1">
          <mxGeometry x="840" y="230" width="100" height="560" as="geometry" />
        </mxCell>
        <mxCell id="XZgcgWhxU5W4tQEqC7gM-17" value="" style="html=1;points=[[0,0,0,0,5],[0,1,0,0,-5],[1,0,0,0,5],[1,1,0,0,-5]];perimeter=orthogonalPerimeter;outlineConnect=0;targetShapes=umlLifeline;portConstraint=eastwest;newEdgeStyle={&quot;curved&quot;:0,&quot;rounded&quot;:0};" vertex="1" parent="XZgcgWhxU5W4tQEqC7gM-14">
          <mxGeometry x="45" y="510" width="10" height="21" as="geometry" />
        </mxCell>
        <mxCell id="XZgcgWhxU5W4tQEqC7gM-18" value="updateDutySheetDeleted(ds)" style="html=1;verticalAlign=bottom;endArrow=block;curved=0;rounded=0;" edge="1" parent="1" target="XZgcgWhxU5W4tQEqC7gM-17">
          <mxGeometry relative="1" as="geometry">
            <mxPoint x="330" y="751" as="sourcePoint" />
            <mxPoint x="870" y="750" as="targetPoint" />
          </mxGeometry>
        </mxCell>
        <mxCell id="9zM3RUUCOq9NN5BDwnVw-1" value="alt&lt;div&gt;[!user.isChef()]&lt;/div&gt;" style="shape=umlFrame;whiteSpace=wrap;html=1;pointerEvents=0;width=100;height=30;" vertex="1" parent="1">
          <mxGeometry x="-10" y="370" width="950" height="520" as="geometry" />
        </mxCell>
        <mxCell id="9zM3RUUCOq9NN5BDwnVw-2" value="throw UseCaseLogicException" style="html=1;verticalAlign=bottom;endArrow=open;dashed=1;endSize=8;curved=0;rounded=0;" edge="1" parent="1">
          <mxGeometry relative="1" as="geometry">
            <mxPoint x="315" y="390" as="sourcePoint" />
            <mxPoint x="120" y="390" as="targetPoint" />
          </mxGeometry>
        </mxCell>
        <mxCell id="9zM3RUUCOq9NN5BDwnVw-3" value="" style="endArrow=none;dashed=1;html=1;rounded=0;exitX=0;exitY=0.12;exitDx=0;exitDy=0;exitPerimeter=0;" edge="1" parent="1">
          <mxGeometry width="50" height="50" relative="1" as="geometry">
            <mxPoint x="-10" y="405.7200000000001" as="sourcePoint" />
            <mxPoint x="970" y="410" as="targetPoint" />
          </mxGeometry>
        </mxCell>
        <mxCell id="9zM3RUUCOq9NN5BDwnVw-4" value="[!ev.isAssigned(user) ||&amp;nbsp;&lt;div&gt;ds.isActive()]&lt;/div&gt;" style="text;html=1;align=center;verticalAlign=middle;resizable=0;points=[];autosize=1;strokeColor=none;fillColor=none;" vertex="1" parent="1">
          <mxGeometry x="-25" y="405" width="150" height="40" as="geometry" />
        </mxCell>
        <mxCell id="9zM3RUUCOq9NN5BDwnVw-5" value="throw UseCaseLogicException" style="html=1;verticalAlign=bottom;endArrow=open;dashed=1;endSize=8;curved=0;rounded=0;" edge="1" parent="1">
          <mxGeometry relative="1" as="geometry">
            <mxPoint x="315" y="424.66" as="sourcePoint" />
            <mxPoint x="120" y="424.66" as="targetPoint" />
          </mxGeometry>
        </mxCell>
        <mxCell id="9zM3RUUCOq9NN5BDwnVw-6" value="" style="endArrow=none;dashed=1;html=1;rounded=0;exitX=0;exitY=0.12;exitDx=0;exitDy=0;exitPerimeter=0;" edge="1" parent="1">
          <mxGeometry width="50" height="50" relative="1" as="geometry">
            <mxPoint x="-10" y="440.00000000000006" as="sourcePoint" />
            <mxPoint x="960" y="440" as="targetPoint" />
          </mxGeometry>
        </mxCell>
        <mxCell id="9zM3RUUCOq9NN5BDwnVw-8" value="for each er in receivers" style="shape=umlFrame;whiteSpace=wrap;html=1;pointerEvents=0;width=80;height=30;" vertex="1" parent="1">
          <mxGeometry x="220" y="720" width="700" height="60" as="geometry" />
        </mxCell>
        <mxCell id="O98gl6Ivyuwvl0K-2pTk-1" value="" style="html=1;points=[[0,0,0,0,5],[0,1,0,0,-5],[1,0,0,0,5],[1,1,0,0,-5]];perimeter=orthogonalPerimeter;outlineConnect=0;targetShapes=umlLifeline;portConstraint=eastwest;newEdgeStyle={&quot;curved&quot;:0,&quot;rounded&quot;:0};" vertex="1" parent="1">
          <mxGeometry x="679" y="460" width="10" height="40" as="geometry" />
        </mxCell>
      </root>
    </mxGraphModel>
  </diagram>
</mxfile>
